<svg xmlns="http://www.w3.org/2000/svg" width="40" height="40" viewBox="0 0 40 40" aria-hidden="true" focusable="false">
  <g fill="none" fill-rule="evenodd">
    <path fill="#CC332C" d="M0 40h40V0H0z"/>
    <path d="M27.8029995 15.805421V6.91489468h-1.6115789v6.79526316c-.3578948.50473686-.6957895.75421056-1.0178948.75421056-.2168421 0-.3421052-.1273685-.3773684-.3773685-.02-.0521052-.02-.24894732-.02-.62736837V6.91489468h-1.6057895v7.03000002c0 .6273684.0542106 1.0531579.1431579 1.3221052.16.4505264.5184211.661579 1.0373685.661579.5873684 0 1.1989473-.3573684 1.8405263-1.0931579v.97h1.6115789zm-7.57-2.57526316c0 .82263156-.248421 1.23421056-.7678947 1.23421056-.5205263 0-.7694737-.411579-.7694737-1.23421056V9.48963153c0-.82263158.2489474-1.23210527.7694737-1.23210527.5194737 0 .7678947.40947369.7678947 1.23210527v3.74052631zm1.6121053-.30315789V9.81226311c0-.94947369-.1631579-1.64368422-.5005263-2.09421053-.4468421-.60684211-1.0726316-.91105263-1.8794737-.91105263-.8026316 0-1.4310526.30421052-1.8763158.91105263-.3431579.45052631-.5042105 1.14473684-.5042105 2.09421053v3.11473684c0 .94526316.1610526 1.64526315.5042105 2.09157895.4452632.6057895 1.0736842.91 1.8763158.91.8068421 0 1.4326316-.3042105 1.8794737-.91.3373684-.4463158.5005263-1.14631579.5005263-2.09157895zM17.0698416 3.875421h-1.80631576l-1.21894737 4.68473684L12.77721005 3.875421h-1.88105263c.37631579 1.10473684.76947369 2.21684211 1.14578947 3.32315789.57263158 1.66421053.93052632 2.91789474 1.09157895 3.77473685V15.805421h1.78736842v-4.83210526L17.0698416 3.875421zM33.0214207 26.5959473c0 2.0563158-.0015791 4.2384211-.4626317 6.2357895-.3221053 1.4021053-1.4689474 2.4368421-2.8505263 2.5915789-3.271579.3652632-6.5831579.3673685-9.8778948.3652632-3.2963157.0021053-6.60736837 0-9.87842101-.3652632-1.38157894-.1547368-2.52894736-1.1894736-2.85052631-2.5915789-.45947369-1.9973684-.45947369-4.1794737-.45947369-6.2357895 0-2.0589474.00473685-4.2368421.46473685-6.2368421.32210526-1.4015789 1.46947368-2.4363158 2.85105263-2.5905263 3.27105263-.3663516 6.58210523-.3668421 9.87789473-.3663516 3.2952632-.0004905 6.6068421 0 9.8778947.3663516 1.381579.1542105 2.5289474 1.1889474 2.8505264 2.5905263.4594736 2 .4573685 4.1778947.4573685 6.2368421" fill="#FEFEFE"/>
    <path d="M31.0564732 29.4878421v-.2321053h-1.6278947c0 .64-.0189474.9921053-.0336842 1.0789474-.0921053.4257894-.321579.64-.7131579.64-.5468421 0-.8136842-.4057895-.8136842-1.2210527v-1.5589473h3.188421v-1.821579c0-.9415789-.1605263-1.6289474-.4942105-2.0736842-.4468421-.6031579-1.0810526-.9021053-1.8805263-.9021053-.8136842 0-1.45.2989474-1.9089474.9021053-.3394737.4447368-.4926316 1.1321053-.4926316 2.0736842v3.081579c0 .9331579.1731579 1.6289473.511579 2.0678947.46.6010526 1.0947368.9021053 1.9305263.9021053.8321052 0 1.4857895-.3157895 1.9278947-.9542106.1921053-.2821052.3173684-.6026315.3710527-.9547368.0147368-.1610526.0352631-.5152632.0352631-1.0278947zm-1.5947368-2.6205264h-1.5936842v-.8136842c0-.8131579.2668421-1.2210526.8-1.2210526.5263157 0 .7936842.4078947.7936842 1.2210526v.8136842zm-4.4231579 2.7957895v-3.5042105c0-.8321053-.0542106-1.4147369-.1605263-1.7689474-.2126316-.6589474-.6389474-.9926316-1.2742106-.9926316-.5852631 0-1.1315789.321579-1.6473684.9536842v-3.8563157h-1.5931579v11.8078947h1.5931579v-.8521053c.5331579.6584211 1.08.9742106 1.6473684.9742106.6352632 0 1.061579-.3342106 1.2742106-.9889474.1063157-.3726316.1605263-.9589474.1605263-1.7726316zm-1.5931579.1257895c0 .7947368-.2342105 1.1857895-.6936842 1.1857895-.2621053 0-.5284211-.1257895-.7952632-.3910527v-5.3636842c.2668421-.2615789.5331579-.3873684.7952632-.3873684.4594737 0 .6936842.4078947.6936842 1.2010526v3.7552632zm-6.0584211 2.5136842v-.9589474c-.6326316.7263158-1.23473682 1.0810527-1.82105261 1.0810527-.51421052 0-.86842105-.2084211-1.0268421-.6552632-.08789474-.2673684-.14105263-.6857895-.14105263-1.3078947v-6.9568421h1.59368421v6.4773684c0 .3726316 0 .568421.01473684.62.03894737.2468421.15947368.3726316.37263159.3726316.32 0 .6557895-.2473685 1.0078947-.7452632v-6.7247368h1.5963158v8.7978947h-1.5963158zm-3.22052629-10.1447368v-1.6631579H8.60752584v1.6631579h1.87578948v10.1447368h1.77263157V22.1578421h1.91052632z" fill="#CC332C"/>
  </g>
</svg>