<svg width="170" height="51" viewBox="0 0 170 51" fill="none" xmlns="http://www.w3.org/2000/svg">
<path d="M14.1637 50.1025C11.6243 50.0079 8.67933 49.4188 7.3349 48.756C7.18552 48.6824 6.8014 48.5036 6.4813 48.3458C5.20089 47.7357 4.26193 47.0624 3.3443 46.1367C2.73611 45.5266 1.67977 44.0433 1.67977 43.8014C1.67977 43.7488 1.58374 43.4963 1.46637 43.2544C1.349 43.0229 1.25297 42.7284 1.25297 42.6232C1.25297 42.5075 1.17828 42.2129 1.08225 41.9605C0.996887 41.708 0.879516 41.1715 0.826166 40.7612C0.772816 40.3615 0.655445 39.4568 0.570084 38.7625C0.463384 37.9841 0.410033 36.6061 0.399363 35.1544C0.399363 32.4719 0.431374 32.3457 1.17828 31.988C1.62642 31.7776 1.78647 31.7671 6.36393 31.7671C11.5923 31.7671 11.5709 31.7671 12.0617 32.4403C12.2858 32.7559 12.2965 32.8506 12.3498 36.3431C12.4139 40.4983 12.4565 40.7507 13.2995 41.4345C13.7369 41.7816 13.8223 41.8132 14.4838 41.8132C15.1027 41.8132 15.2521 41.7711 15.5935 41.5186C16.1911 41.0663 16.5005 40.4877 16.6819 39.5199C17.002 37.7106 16.8099 34.6705 16.2978 33.608C15.9563 32.8716 15.5935 32.4824 14.3665 31.5146C12.926 30.3785 13.0647 30.4732 7.81506 26.9913C5.80908 25.6553 4.08053 24.3404 3.26961 23.5409C2.86415 23.1306 2.53338 22.7624 2.53338 22.7204C2.53338 22.6678 2.46936 22.5626 2.39466 22.4889C2.11724 22.2049 1.64776 21.3739 1.10359 20.1747C-0.17682 17.3449 -0.379551 11.4856 0.687455 7.57233C0.964877 6.52038 1.55173 5.22649 1.90384 4.85831C2.01054 4.73208 2.10657 4.60584 2.10657 4.57428C2.10657 4.38493 3.56837 3.04896 4.29394 2.57559C6.08651 1.40792 7.78305 0.797796 10.3439 0.398056C12.9367 -0.0122028 16.7992 0.12455 19.0186 0.703121C19.3707 0.787277 19.8295 0.902991 20.0323 0.945069C21.0459 1.16598 22.9025 1.9865 24.0336 2.72286C24.6631 3.13312 25.7834 4.13247 26.1782 4.6374C27.0638 5.79454 27.5547 7.62493 27.7787 10.5704C28.0455 14.2627 27.9921 14.9886 27.3946 15.5145C27.1706 15.7144 27.0105 15.7249 21.9422 15.7249H16.7246L16.4365 15.4409C16.1484 15.1569 16.1484 15.1569 16.063 13.0214C16.0203 11.8432 15.9136 10.5283 15.8283 10.097C15.6896 9.40272 15.6255 9.26596 15.2414 8.91882C14.836 8.54012 14.7719 8.51908 14.1317 8.51908C13.5876 8.51908 13.3848 8.57168 13.1394 8.75051C12.6166 9.15025 12.4672 9.38168 12.2218 10.1496C11.7416 11.6118 11.9871 14.5257 12.6806 15.6408C13.2034 16.4718 14.1637 17.2502 16.0844 18.3969C17.6102 19.3121 18.1437 19.6487 18.2931 19.7749C18.3677 19.8275 18.4531 19.8801 18.4851 19.8801C18.6132 19.8801 21.6541 21.9209 22.5397 22.5836C23.7028 23.4672 24.1829 23.8459 24.3643 24.0248C24.4924 24.151 24.9192 24.5613 25.3246 24.9505C26.1889 25.7815 26.477 26.1076 26.8291 26.6441C27.9601 28.4219 28.4083 29.6842 28.7497 32.1879C29.0485 34.3759 29.0165 38.9729 28.6964 40.9716C28.451 42.497 28.1842 43.4753 27.8001 44.2853C26.637 46.6942 24.0549 48.4089 19.7975 49.5871C18.7199 49.8921 15.7322 50.1656 14.1637 50.1025ZM148.767 49.9973C148.596 49.9132 148.361 49.7343 148.265 49.6081C148.084 49.3977 148.073 47.9566 148.073 25.1083V0.829354L148.414 0.51377C148.607 0.345459 148.905 0.187667 149.087 0.156109C149.257 0.12455 153.653 0.114031 158.85 0.12455L168.293 0.156109L168.613 0.398056C169.157 0.818835 169.178 1.00819 169.189 5.02662C169.2 8.98194 169.178 9.17129 168.666 9.62363C168.442 9.8235 168.239 9.83402 164.996 9.88661C161.197 9.94973 161.133 9.96025 160.888 10.644C160.728 11.0858 160.728 18.5757 160.888 19.0175C161.123 19.6908 161.229 19.7118 164.74 19.7749L167.909 19.8275L168.229 20.1326L168.56 20.4482V24.3509C168.56 28.6218 168.57 28.5376 167.919 28.8742C167.663 29.0005 167.076 29.032 164.729 29.032C161.741 29.032 161.432 29.0741 161.037 29.4844C160.834 29.7053 160.824 29.8736 160.792 34.4496C160.77 37.7106 160.792 39.3096 160.877 39.5831C160.952 39.846 161.112 40.0564 161.336 40.1827C161.656 40.3825 161.901 40.3931 165.305 40.3931C168.549 40.3931 168.976 40.4141 169.306 40.5824C169.989 40.919 170 40.9611 170 45.2846C170 49.6081 170 49.6186 169.306 49.9763C168.954 50.1656 168.474 50.1762 159.01 50.1762C150.196 50.1656 149.055 50.1446 148.767 49.9973ZM33.3699 44.422C33.0924 44.3694 32.7403 44.0644 32.5269 43.6857C32.4416 43.5173 32.4095 38.447 32.4095 24.4035C32.4095 3.60649 32.3669 5.02662 33.0071 4.53221C33.2952 4.3113 33.3378 4.3113 41.3191 4.3113C49.3003 4.3113 49.3429 4.3113 49.631 4.53221C50.2072 4.98454 50.2286 5.10026 50.2286 8.38233C50.2286 11.1384 50.2072 11.454 50.0258 11.7801C49.7057 12.3797 49.5777 12.4113 46.8461 12.4113C43.9439 12.4113 43.6771 12.4744 43.3037 13.2108C43.1009 13.6105 43.0796 13.8209 43.0796 16.0615C43.0796 17.3975 43.1116 18.6388 43.1436 18.8282C43.1863 19.0175 43.3784 19.3331 43.5811 19.5224L43.9439 19.8801H46.3446C49.0655 19.8801 49.2256 19.9222 49.5884 20.6165C49.7911 20.9952 49.8018 21.2371 49.8018 23.7933C49.8018 27.7907 49.9191 27.6645 46.3873 27.6645C43.9225 27.675 43.8158 27.6961 43.3784 28.2431L43.133 28.5587V31.9775C43.133 36.6902 42.8555 36.3957 47.2623 36.3957L50.1752 36.4062L50.4953 36.6797L50.8154 36.9532V43.8434L50.506 44.1064C50.3353 44.2537 50.0578 44.401 49.8764 44.4325C49.5137 44.5062 33.786 44.4957 33.3699 44.422ZM54.5499 44.3799C54.1765 44.2747 53.8564 43.8119 53.8564 43.3701C53.8564 43.2123 53.9204 42.5811 54.0164 41.971C54.1551 40.9401 54.2618 40.2037 54.8167 36.0801C54.9341 35.2175 55.1261 33.8079 55.2435 32.9558C55.3502 32.0932 55.5316 30.8519 55.6276 30.1892C55.7236 29.5265 55.841 28.5797 55.8837 28.0853C55.937 27.5909 56.0544 26.7704 56.1398 26.2549C56.2358 25.7394 56.3105 25.1714 56.3105 24.9926C56.3105 24.8137 56.4065 24.0248 56.5239 23.2463C56.6306 22.4679 56.8333 21.1004 56.9507 20.2272C57.0681 19.3436 57.2601 17.9235 57.3775 17.0714C57.6229 15.2305 57.9217 12.9899 58.2311 10.6756C58.3485 9.74986 58.5512 8.35077 58.6579 7.57233C58.7753 6.79389 58.8713 5.99441 58.8713 5.79454C58.8713 5.37376 59.1914 4.81623 59.6182 4.52169C59.9063 4.3113 60.0664 4.3113 66.7885 4.3113C73.1692 4.3113 73.6707 4.32182 73.9374 4.50065C74.3322 4.75311 74.663 5.19493 74.663 5.46844C74.663 5.59467 74.759 6.22584 74.8657 6.87805C74.9831 7.51973 75.1752 8.72947 75.3032 9.57103C75.4206 10.4126 75.6126 11.717 75.73 12.4639C76.0181 14.3784 76.3489 16.5349 76.5943 18.197C76.7116 18.9754 76.9037 20.2062 77.0211 20.9321C77.1491 21.6579 77.2345 22.3417 77.2131 22.4469C77.1811 22.5941 76.7543 22.7624 75.3566 23.1937C72.2729 24.13 71.1099 24.6559 70.6297 25.3187C70.2989 25.771 70.2456 26.1181 70.4376 26.4863C70.8644 27.2963 71.7821 27.5488 74.663 27.6224C75.8047 27.6435 77.0424 27.6961 77.4159 27.7276C78.0347 27.7802 78.0774 27.8013 78.0774 28.0537C78.0774 28.1905 78.1734 28.8637 78.2801 29.537C78.6643 31.7881 78.8457 32.9663 78.931 33.7132C78.9737 34.1235 79.0911 34.944 79.1978 35.5541C79.2938 36.1642 79.4645 37.2477 79.5712 37.9736C79.6886 38.6994 79.8807 39.9197 80.0087 40.6981C80.1367 41.466 80.2434 42.518 80.2541 43.0334C80.2648 43.8645 80.2434 43.9907 80.0194 44.2011L79.7739 44.4431H70.2669L69.9041 44.0538C69.7014 43.8329 69.5414 43.5699 69.5414 43.4753C69.5414 43.3701 69.4453 42.3392 69.328 41.182C69.2106 40.0249 69.1146 38.8783 69.1146 38.6363C69.1146 37.7842 68.357 37.2372 67.1833 37.2372C65.9562 37.2372 65.2733 37.8368 65.2733 38.9203C65.2627 39.2359 65.156 40.4562 65.0279 41.6238C64.8039 43.5489 64.7612 43.7803 64.5264 44.0223C64.3877 44.1696 64.0996 44.3273 63.8969 44.3905C63.4167 44.5167 54.9981 44.5167 54.5499 44.3799ZM68.0902 29.8631C68.6664 29.4213 68.6878 29.2635 68.4637 27.2963C68.357 26.318 68.1649 24.5402 68.0582 23.3515C67.9409 22.1628 67.7488 20.2062 67.6314 18.986C67.5034 17.7762 67.386 16.2719 67.3433 15.6513C67.3113 15.0201 67.2366 14.5152 67.1939 14.5152C67.1406 14.5152 67.0766 14.8308 67.0339 15.2305C67.0019 15.6197 66.8845 16.556 66.7672 17.3028C66.351 20.2167 65.2627 29.295 65.2733 29.9052C65.2733 30.0629 65.4014 30.084 66.5431 30.084C67.6634 30.084 67.8342 30.0629 68.0902 29.8631ZM92.5353 44.3799C92.3646 44.3273 92.1085 44.1275 91.9805 43.9381L91.7351 43.591V36.7323C91.7351 30.368 91.7458 29.8736 91.9165 29.8736C92.2473 29.8736 95.5443 30.7783 96.8781 31.2411C98.2118 31.6935 98.852 31.7461 99.4495 31.462C100.581 30.9255 100.538 29.7053 99.3642 28.5587C98.628 27.8328 97.3369 27.1596 94.2426 25.8762C93.2502 25.4659 92.2686 25.0662 92.0872 24.982L91.7351 24.8243V19.6487L92.6207 18.5862C94.1252 16.7769 94.7547 15.7565 94.9361 14.8413C95.1175 13.884 94.712 13.1792 93.8904 13.074C93.3463 13.0004 92.8341 13.1687 92.2259 13.6315L91.7351 13.9997V5.0687L92.1192 4.69L92.5033 4.3113H101.669L102.032 4.67948L102.405 5.03714V20.2062C102.405 37.2372 102.33 35.7645 103.205 36.1853C103.6 36.3746 103.878 36.3957 105.894 36.3957H108.146L108.476 36.7218L108.807 37.0479V43.7277L108.54 44.0118C108.391 44.1695 108.114 44.3484 107.922 44.401C107.484 44.5272 92.9621 44.5062 92.5353 44.3799ZM113.118 44.422C112.99 44.401 112.755 44.2327 112.584 44.0644L112.275 43.7488L112.243 30.4732C112.232 23.1727 112.243 17.0924 112.275 16.9662C112.307 16.8295 112.478 16.5875 112.648 16.4087L112.958 16.0931H122.209L122.55 16.4402L122.892 16.7874V43.7593L122.582 44.0959L122.273 44.4431L117.802 44.4536C115.348 44.4641 113.235 44.4536 113.118 44.422ZM127.266 44.3589C126.989 44.2642 126.829 44.1064 126.658 43.7593L126.413 43.2964V24.435C126.413 3.65909 126.37 5.00558 127.053 4.52169C127.341 4.3113 127.544 4.3113 135.482 4.3113C143.41 4.3113 143.624 4.3113 143.912 4.52169C144.509 4.94246 144.552 5.16337 144.552 8.35077C144.552 10.7808 144.52 11.3173 144.381 11.6749C144.093 12.3797 143.965 12.4113 140.977 12.4113C137.008 12.4113 137.19 12.2325 137.19 16.1773C137.19 19.1122 137.211 19.2174 137.712 19.6382C137.979 19.8591 138.075 19.8696 140.337 19.8801C143.858 19.8801 143.698 19.7013 143.698 23.8354C143.698 26.5705 143.688 26.7704 143.485 27.0859C143.368 27.2753 143.111 27.4857 142.93 27.5488C142.738 27.6224 141.714 27.6645 140.423 27.6645C138.598 27.6645 138.171 27.6961 137.862 27.8433C137.168 28.1589 137.19 27.9275 137.19 36.0801C137.19 43.9802 137.2 43.7383 136.656 44.2327C136.432 44.4325 136.251 44.4431 132.025 44.4641C128.814 44.4851 127.544 44.4536 127.266 44.3589ZM113.107 12.3797C112.915 12.3061 112.659 12.1378 112.52 11.9905C112.275 11.738 112.275 11.7065 112.243 8.43493L112.211 5.13182L112.627 4.72156L113.054 4.3113H122.166L122.529 4.66896L122.892 5.02662V8.38233L122.881 11.7275L122.636 12.0115C122.497 12.1588 122.198 12.3376 121.974 12.4008C121.377 12.5691 113.566 12.5375 113.107 12.3797Z" fill="#181818"/>
<path d="M84.7355 38.6258C84.4795 38.4154 84.138 37.8158 84.0847 37.5002C84.074 37.3845 84.0527 37.0268 84.042 36.7112C84.042 36.3956 83.9993 36.0906 83.9673 36.0275C83.9246 35.9749 83.8819 35.754 83.8819 35.5541C83.8713 35.3542 83.8393 35.0491 83.8072 34.8703C83.7752 34.702 83.7219 34.2707 83.6899 33.9236C83.6472 33.5764 83.5938 33.1767 83.5512 33.0294C83.5192 32.8821 83.4765 32.6507 83.4658 32.5034C83.4018 31.9143 83.3058 31.2727 83.2311 30.9781C83.1991 30.8098 83.1777 30.5573 83.1884 30.4311C83.199 30.2944 83.1777 30.1366 83.135 30.0629C83.0923 29.9893 83.039 29.7053 83.0283 29.4212C83.007 29.1372 82.9536 28.8532 82.8896 28.7901C82.8256 28.727 82.7722 28.5902 82.7722 28.485C82.7722 28.2746 82.036 27.5383 81.5985 27.3068C81.1931 27.0859 79.6459 26.9492 76.8504 26.8755C72.6677 26.7598 71.7287 26.6546 71.3126 26.2338C71.0352 25.9603 71.3553 25.5606 72.1342 25.2135C72.497 25.0557 72.9451 24.8558 73.1158 24.7822C73.2972 24.698 74.1615 24.414 75.0365 24.151C75.9221 23.8775 76.9251 23.5724 77.2772 23.4567C77.6293 23.3515 78.1201 23.2253 78.3655 23.1937C78.6216 23.1516 78.8457 23.0885 78.8777 23.0359C78.9097 22.9938 79.1124 22.9202 79.3258 22.8781C79.9554 22.7729 80.5209 22.3522 80.7343 21.8472C80.905 21.4159 80.9477 20.2272 80.8196 19.4067C80.7876 19.2384 80.7343 18.8597 80.6916 18.5652C80.6489 18.2811 80.5635 17.9866 80.5209 17.9235C80.4675 17.8604 80.4568 17.7762 80.4889 17.7446C80.5315 17.7131 80.5209 17.5974 80.4782 17.4922C80.4248 17.387 80.3822 17.2607 80.3715 17.1976C80.2861 16.6085 80.1688 16.0194 80.1261 15.9353C80.0941 15.8827 80.0514 15.767 80.0514 15.6723C80.0087 15.3146 79.7633 14.2417 79.6673 14.0733C79.6139 13.9682 79.6032 13.8209 79.6352 13.7367C79.6673 13.6526 79.6566 13.5158 79.6139 13.4422C79.5712 13.3791 79.5179 13.2213 79.5072 13.1056C79.4965 12.9793 79.4432 12.6743 79.4005 12.4113C79.2618 11.6749 79.2938 11.1595 79.4859 10.9806C79.6459 10.8228 79.6779 10.8228 79.8913 10.9701C80.2968 11.2436 81.5985 13.3896 81.5985 13.7683C81.5985 13.8209 81.6732 13.9156 81.7586 13.9892C81.844 14.0628 81.9186 14.1891 81.9186 14.2627C81.9186 14.3469 82.1 14.7992 82.3241 15.2726C82.5482 15.7565 82.9003 16.5454 83.0924 17.0398C83.7112 18.5862 84.1487 19.4278 84.4474 19.6907C85.2264 20.3535 86.8269 20.0063 87.8512 18.9649C88.0966 18.7124 88.342 18.5126 88.3954 18.5126C88.5021 18.5126 90.2733 16.7348 90.348 16.5559C90.444 16.3035 93.0368 13.9892 93.2182 13.9892C93.3143 13.9892 93.453 13.9366 93.517 13.8735C93.6664 13.7262 94.0292 13.9366 94.1679 14.2522C94.3173 14.5572 93.9438 15.4619 93.2929 16.3981C92.9942 16.8189 92.7061 17.2502 92.6421 17.3449C92.5887 17.4291 92.45 17.5763 92.354 17.65C92.2473 17.7236 92.1619 17.8393 92.1619 17.9024C92.1619 17.955 92.0339 18.1444 91.8738 18.3022C91.1162 19.0701 90.9882 19.2068 90.9882 19.27C90.9882 19.312 90.7001 19.6381 90.348 20.0063C89.9959 20.364 89.7078 20.6901 89.7078 20.7322C89.7078 20.7637 89.5477 20.9636 89.3663 21.1635C89.1743 21.3633 88.9502 21.6684 88.8649 21.8367C88.7902 22.005 88.6835 22.2154 88.6408 22.3101C88.3954 22.7835 88.406 23.2253 88.6835 23.7933C88.8328 24.1089 89.0676 24.4666 89.1956 24.5823C89.441 24.7927 90.5401 25.3502 90.7321 25.3502C90.7855 25.3502 91.0202 25.4344 91.2549 25.5501C92.0872 25.9393 92.7061 26.1918 92.8128 26.1918C92.8768 26.1918 93.3356 26.3811 93.8264 26.6125C94.3279 26.844 94.8187 27.0333 94.9254 27.0333C95.0321 27.0333 95.1815 27.107 95.2562 27.1911C95.3309 27.2753 95.4376 27.3489 95.5016 27.3489C95.6083 27.3489 96.6327 27.8012 96.9634 28.0011C97.0488 28.0432 97.2729 28.1589 97.4436 28.2431C98.2012 28.6112 98.9481 29.1162 99.0548 29.3371C99.1294 29.4633 99.2361 29.6316 99.3002 29.6947C99.3642 29.7579 99.4175 29.9788 99.4175 30.1892C99.4175 30.5153 99.3642 30.6099 99.0761 30.7572C98.724 30.9466 98.7133 30.936 97.4222 30.5153C96.6967 30.2733 96.0458 30.084 95.9711 30.084C95.8858 30.084 95.6617 30.0103 95.4803 29.9157C95.2882 29.821 95.0001 29.7263 94.8401 29.7158C94.6907 29.7053 94.424 29.6316 94.2532 29.5685C94.0825 29.5054 93.9225 29.4738 93.8905 29.5054C93.8584 29.5264 93.7838 29.5159 93.7197 29.4633C93.6024 29.3686 92.6954 29.1477 91.4683 28.9058C91.1803 28.8532 90.7001 28.7375 90.412 28.6533C90.1346 28.5692 89.8572 28.5271 89.8145 28.5586C89.7611 28.5902 89.6971 28.5692 89.6544 28.506C89.6224 28.4534 89.441 28.4114 89.249 28.4114C89.0569 28.4114 88.6408 28.3903 88.3207 28.3693C88.0006 28.3483 87.5951 28.3693 87.4244 28.4114C87.147 28.4955 86.5281 29.032 86.4961 29.2214C86.3467 29.9788 86.304 30.7677 86.24 33.3976C86.144 37.9736 86.08 38.3733 85.5145 38.6573C85.109 38.8572 85.013 38.8467 84.7355 38.6258V38.6258ZM85.4931 30.2312C85.9519 29.9367 85.7812 29.3266 85.205 29.1898C85.0023 29.1372 84.8636 29.1793 84.7035 29.3371C84.4154 29.6211 84.4154 29.8525 84.7142 30.1576C84.981 30.4416 85.141 30.4627 85.4931 30.2312V30.2312ZM85.173 27.391C85.4078 27.0859 85.4504 26.9597 85.3864 26.6125C85.2157 25.6448 84.01 25.6132 83.7432 26.5705C83.6259 26.9912 83.7112 27.3173 84.01 27.5698C84.4581 27.9485 84.7782 27.8959 85.173 27.391ZM89.9319 27.391C90.1026 27.1911 90.1133 26.5494 89.9532 26.3916C89.8785 26.318 89.6864 26.297 89.473 26.339C88.8649 26.4442 88.6835 27.2437 89.217 27.4541C89.5584 27.5909 89.7718 27.5803 89.9319 27.391V27.391ZM87.6058 26.1497C87.9792 25.6763 87.9899 25.224 87.6271 24.8663C87.4137 24.6664 87.2857 24.6138 86.9656 24.6559C86.4427 24.7085 86.1867 25.0241 86.1867 25.6237C86.1867 26.5179 87.0403 26.8335 87.6058 26.1497ZM82.2174 25.9077C82.6549 25.6448 82.7722 25.4554 82.7722 25.0241C82.7722 24.4561 82.4735 24.1405 81.9186 24.1405C81.3425 24.1405 81.065 24.4455 81.065 25.0767C81.065 25.5711 81.1504 25.7394 81.5025 25.9288C81.844 26.1181 81.8866 26.1181 82.2174 25.9077V25.9077ZM79.9767 25.6448C80.1367 25.487 80.1474 25.0872 79.998 24.8137C79.9127 24.6664 79.774 24.6138 79.4752 24.6138C79.0377 24.6138 78.931 24.7296 78.931 25.1924C78.931 25.6553 79.0377 25.771 79.4539 25.771C79.6673 25.771 79.902 25.7184 79.9767 25.6448ZM84.7996 25.0241C85.0556 24.5612 84.7996 23.8775 84.3728 23.8775C83.8819 23.8775 83.5618 24.8032 83.9673 25.0767C84.2554 25.2766 84.6822 25.2555 84.7996 25.0241ZM86.5921 23.4041C87.0083 23.057 87.0936 22.6993 86.8695 22.2364C86.6668 21.8157 86.5815 21.7526 86.1867 21.7105C85.9946 21.6894 85.8025 21.7736 85.5678 21.984C85.109 22.3942 85.0983 22.9202 85.5358 23.362C85.9199 23.7407 86.176 23.7513 86.5921 23.4041V23.4041ZM84.074 22.9518C84.3621 22.6677 84.4154 22.005 84.1807 21.721C84.0847 21.6053 83.8819 21.4475 83.7326 21.3739C83.2311 21.1214 82.5802 21.6579 82.6122 22.2996C82.6335 22.6572 82.8363 23.1096 83.007 23.1727C83.3058 23.2779 83.8713 23.1622 84.074 22.9518V22.9518ZM88.1926 21.4264C88.31 21.3002 88.3634 20.932 88.342 20.5954C88.3314 20.4797 88.182 20.3955 87.9259 20.3429C87.5951 20.2798 87.5098 20.3114 87.339 20.5113C87.2323 20.6375 87.147 20.8374 87.147 20.9426C87.147 21.4054 87.9152 21.7631 88.1926 21.4264V21.4264ZM82.8896 20.2483C83.1564 20.1115 83.1991 20.0274 83.167 19.7328C83.1137 19.2384 83.039 19.1648 82.5909 19.1858C82.2708 19.1963 82.1854 19.2489 82.1214 19.4593C82.004 19.8906 82.0147 20.0694 82.1961 20.2377C82.3988 20.4481 82.4842 20.4481 82.8896 20.2483V20.2483Z" fill="#EE7F00"/>
<path d="M86.1014 36.8164C86.1014 36.6166 86.1227 36.5324 86.1547 36.6376C86.1761 36.7323 86.1761 36.9006 86.1547 37.0058C86.1227 37.1005 86.1014 37.0163 86.1014 36.8164ZM83.9674 36.3957C83.9674 36.1958 83.9887 36.1116 84.0207 36.2168C84.0421 36.3115 84.0421 36.4798 84.0207 36.585C83.9887 36.6797 83.9674 36.5955 83.9674 36.3957ZM86.2294 32.5035C86.2294 31.9564 86.2401 31.725 86.2614 32.009C86.2828 32.2826 86.2828 32.7244 86.2614 33.0084C86.2401 33.2819 86.2294 33.0505 86.2294 32.5035ZM96.3233 30.2418C96.1206 30.1681 96.0246 30.0945 96.1099 30.0945C96.1953 30.0945 96.4193 30.1576 96.5901 30.2418C97.0062 30.4206 96.8141 30.4311 96.3233 30.2418ZM85.6426 29.8526C85.6853 29.558 85.7066 29.5475 85.7386 29.7579C85.76 29.8946 85.7386 30.0419 85.6853 30.0945C85.6212 30.1576 85.6106 30.0629 85.6426 29.8526ZM84.4902 29.8105C84.4795 29.6948 84.5542 29.5054 84.6503 29.3897C84.7356 29.2845 84.7783 29.2529 84.7463 29.3266C84.7036 29.4107 84.6289 29.6001 84.5862 29.7474C84.5116 29.9788 84.5009 29.9893 84.4902 29.8105ZM94.7762 29.7684C94.6374 29.7158 94.6268 29.6737 94.7228 29.6737C94.8082 29.6737 94.9789 29.7158 95.0963 29.7684C95.235 29.821 95.2456 29.8631 95.1496 29.8631C95.0642 29.8631 94.8935 29.821 94.7762 29.7684ZM93.1223 29.3476C92.9089 29.2845 92.8982 29.2635 93.0689 29.2635C93.1863 29.2635 93.3784 29.295 93.4957 29.3476C93.7625 29.4633 93.4851 29.4633 93.1223 29.3476ZM91.3084 28.9268C91.095 28.8637 91.0843 28.8427 91.255 28.8427C91.3724 28.8427 91.5858 28.8848 91.7352 28.9268C91.9486 28.99 91.9593 29.011 91.7885 29.011C91.6712 29.011 91.4578 28.9689 91.3084 28.9268ZM96.302 27.7066C95.8858 27.4857 95.9285 27.412 96.3553 27.6224C96.7501 27.8223 96.8248 27.8749 96.6861 27.8749C96.6327 27.8644 96.462 27.7907 96.302 27.7066V27.7066ZM88.961 27.2332C88.897 27.1175 88.8543 26.9702 88.8756 26.9176C88.897 26.865 88.961 26.9597 89.0357 27.1385C89.1744 27.4962 89.1317 27.5593 88.961 27.2332ZM94.296 26.823C93.8052 26.56 93.9332 26.56 94.5201 26.823C94.7762 26.9387 94.9149 27.0228 94.8295 27.0228C94.7441 27.0228 94.4987 26.9387 94.296 26.823ZM76.9358 26.8545C77.0959 26.8335 77.3519 26.8335 77.5227 26.8545C77.6827 26.8755 77.544 26.8966 77.2239 26.8966C76.9038 26.8966 76.7651 26.8755 76.9358 26.8545ZM73.4147 26.7493C73.6921 26.7283 74.1403 26.7283 74.4283 26.7493C74.7058 26.7704 74.471 26.7809 73.9162 26.7809C73.3613 26.7809 73.1266 26.7704 73.4147 26.7493ZM71.334 26.3917C71.2273 26.3391 71.142 26.2339 71.142 26.1602C71.142 26.0761 71.174 26.0655 71.2273 26.1497C71.27 26.2128 71.398 26.318 71.5154 26.3811C71.6328 26.4443 71.6861 26.4968 71.6221 26.4968C71.5688 26.4968 71.4301 26.4548 71.334 26.3917ZM85.1624 26.2233C85.1091 26.1392 84.8743 26.0235 84.6396 25.9814C84.2448 25.9078 84.2341 25.8972 84.5436 25.8867C84.8637 25.8762 85.4505 26.2128 85.3332 26.3391C85.3011 26.3706 85.2264 26.318 85.1624 26.2233ZM92.3754 26.034C92.0233 25.8341 92.1513 25.8341 92.5995 26.034C92.8022 26.1181 92.8876 26.1813 92.8022 26.1813C92.7168 26.1813 92.5248 26.1181 92.3754 26.034ZM79.8594 25.6658C79.9234 25.5817 79.9981 25.3713 80.0301 25.1924L80.0728 24.8769L80.0941 25.203C80.0941 25.4133 80.0301 25.5922 79.9234 25.6763C79.7527 25.8026 79.7527 25.8026 79.8594 25.6658ZM86.9337 25.5606C86.9337 25.3607 86.9657 25.3397 87.0617 25.4344C87.1577 25.5291 87.1577 25.5922 87.0617 25.6868C86.9657 25.7815 86.9337 25.7605 86.9337 25.5606V25.5606ZM87.7446 25.1819C87.7019 25.0136 87.5419 24.8558 87.3285 24.7717C87.1257 24.677 87.0617 24.6244 87.1791 24.6139C87.4138 24.6139 87.894 25.0662 87.894 25.2976C87.894 25.5396 87.8193 25.487 87.7446 25.1819V25.1819ZM71.7928 25.3081C71.8995 25.2135 72.5291 24.9294 72.5291 24.9715C72.5291 25.0346 71.9422 25.3502 71.8248 25.3502C71.7822 25.3502 71.7715 25.3292 71.7928 25.3081ZM82.6763 24.8032C82.6656 24.698 82.5696 24.5192 82.4522 24.4035C82.3349 24.2878 82.2815 24.1931 82.3455 24.1931C82.4949 24.1931 82.8043 24.6875 82.7403 24.8453C82.6976 24.9294 82.6763 24.9084 82.6763 24.8032V24.8032ZM89.1957 24.5718C88.9823 24.3719 88.8223 24.1931 88.8543 24.172C88.8863 24.151 89.089 24.3193 89.3131 24.5402C89.8252 25.0241 89.7399 25.0557 89.1957 24.5718V24.5718ZM81.0651 24.7717C81.0651 24.6033 81.3852 24.1931 81.5133 24.1931C81.588 24.1931 81.5666 24.2562 81.4706 24.3298C81.3852 24.393 81.2572 24.5507 81.1932 24.6665C81.1291 24.7822 81.0651 24.8243 81.0651 24.7717ZM74.1296 24.3509C74.6204 24.1615 74.8125 24.172 74.3963 24.3509C74.2256 24.435 74.0015 24.4981 73.9162 24.4981C73.8308 24.4981 73.9269 24.4245 74.1296 24.3509ZM84.6823 24.13C84.6076 24.0353 84.4475 23.9827 84.2982 24.0143C84.1701 24.0353 84.0848 24.0143 84.1168 23.9722C84.2128 23.8039 84.5436 23.867 84.7463 24.0879C84.853 24.2036 84.917 24.2983 84.885 24.2983C84.853 24.2983 84.7676 24.2246 84.6823 24.13V24.13ZM76.7438 23.5619C76.8611 23.5093 77.0318 23.4672 77.1172 23.4672C77.2132 23.4672 77.2026 23.5093 77.0639 23.5619C76.9465 23.6145 76.7758 23.6566 76.6904 23.6566C76.5944 23.6566 76.605 23.6145 76.7438 23.5619ZM85.5786 23.3936L85.2798 23.1306L85.6319 23.362C85.9413 23.5724 86.016 23.5935 86.3255 23.4778C86.6349 23.3726 86.6456 23.3726 86.4642 23.5093C86.1654 23.7407 85.92 23.6987 85.5786 23.3936ZM83.754 23.078C83.914 22.9939 84.1168 22.794 84.2021 22.6362C84.2982 22.4784 84.3622 22.4153 84.3728 22.4889C84.3728 22.6678 83.786 23.2463 83.6046 23.2463C83.5299 23.2358 83.5939 23.1727 83.754 23.078ZM80.4249 22.2259C80.5636 22.0366 80.6917 21.8788 80.713 21.8788C80.7984 21.8788 80.5316 22.2785 80.3609 22.4153C80.2435 22.51 80.2649 22.4363 80.4249 22.2259V22.2259ZM89.1744 21.3528C89.2917 21.1845 89.4518 21.0057 89.5158 20.9741C89.5905 20.9321 89.5051 21.0688 89.3451 21.2792C88.9823 21.7421 88.8543 21.8052 89.1744 21.3528ZM87.7873 21.4896C87.9366 21.458 88.1287 21.3844 88.2141 21.3213C88.3528 21.2056 88.3528 21.2161 88.2247 21.3844C88.15 21.4791 87.958 21.5527 87.7979 21.5527L87.5205 21.5317L87.7873 21.4896ZM87.1577 20.9741C87.1471 20.8479 87.2324 20.6585 87.3391 20.5428C87.4352 20.4376 87.4778 20.4061 87.4352 20.4692C87.3818 20.5428 87.3071 20.7322 87.2538 20.9005C87.1791 21.1424 87.1684 21.153 87.1577 20.9741ZM89.7079 20.7637C89.7079 20.7322 89.8573 20.5323 90.028 20.3324C90.2094 20.1431 90.3481 20.0063 90.3481 20.0484C90.3481 20.08 90.2094 20.2798 90.028 20.4797C89.8573 20.6691 89.7079 20.8058 89.7079 20.7637ZM84.3728 19.6171C84.2341 19.4698 84.1381 19.3436 84.1701 19.3226C84.1915 19.3121 84.3408 19.4278 84.5009 19.5856C84.6609 19.7434 84.7463 19.8801 84.7036 19.8801C84.6609 19.8801 84.5116 19.7644 84.3728 19.6171ZM86.4108 19.838C86.5175 19.7434 87.1471 19.4593 87.1471 19.5014C87.1471 19.5645 86.5602 19.8801 86.4428 19.8801C86.4002 19.8801 86.3895 19.8591 86.4108 19.838ZM83.0924 19.5856C83.0924 19.5224 83.0177 19.3962 82.9217 19.3121C82.8364 19.2174 82.8043 19.1437 82.8684 19.1437C83.0071 19.1437 83.2418 19.554 83.1565 19.6487C83.1244 19.6802 83.0924 19.6487 83.0924 19.5856V19.5856ZM87.2538 19.4278C87.2538 19.3962 87.4352 19.2489 87.6486 19.0806C87.862 18.9228 88.0007 18.8387 87.958 18.9123C87.8726 19.0491 87.2538 19.5014 87.2538 19.4278ZM83.5406 18.1444C83.3592 17.7552 83.3912 17.671 83.5833 18.0182C83.6793 18.1865 83.7326 18.3443 83.7006 18.3653C83.6793 18.3863 83.6046 18.2917 83.5406 18.1444V18.1444ZM89.2811 17.6184C89.6012 17.3028 89.8893 17.0399 89.9106 17.0399C89.9426 17.0399 89.7079 17.3028 89.3878 17.6184C89.0677 17.934 88.7796 18.197 88.7582 18.197C88.7262 18.197 88.961 17.934 89.2811 17.6184ZM82.8897 16.6086C82.8257 16.4192 82.7937 16.2509 82.815 16.2299C82.8364 16.2088 82.911 16.335 82.9751 16.5244C83.0391 16.7137 83.0711 16.8821 83.0498 16.9031C83.0284 16.9241 82.9537 16.7979 82.8897 16.6086ZM91.6818 15.1674C92.098 14.7361 92.5781 14.2943 92.7488 14.1786C92.9302 14.0523 93.0263 13.9997 92.9622 14.0523C92.9089 14.1154 92.4287 14.5573 91.8952 15.0412L90.9349 15.9353L91.6818 15.1674ZM82.0468 14.673C81.8654 14.2838 81.8974 14.1996 82.0894 14.5467C82.1855 14.7151 82.2388 14.8728 82.2068 14.8939C82.1855 14.9149 82.1108 14.8202 82.0468 14.673V14.673ZM81.588 13.7157C81.5346 13.5579 81.4599 13.3896 81.4172 13.3265C81.3852 13.2634 81.4066 13.2528 81.4599 13.2844C81.5773 13.358 81.844 13.9892 81.748 13.9892C81.7267 13.9892 81.652 13.863 81.588 13.7157ZM80.5423 11.7591C80.3502 11.4645 80.2649 11.2647 80.3396 11.3383C80.4889 11.454 81.0011 12.3061 80.9264 12.3061C80.9051 12.3061 80.7237 12.0641 80.5423 11.7591Z" fill="#F08D1B"/>
<path d="M84.426 39.4779C83.9139 39.2149 83.7218 39.0045 83.455 38.447C83.295 38.1103 83.199 37.7316 83.199 37.395C83.199 36.8901 82.9962 35.3437 82.5588 32.5035C82.4414 31.7776 82.3027 30.7678 82.228 30.2418C82.0573 28.9794 81.8332 28.464 81.3104 28.2115C80.8302 27.9591 78.995 27.8013 75.1964 27.6645C71.7927 27.5488 70.875 27.3174 70.4376 26.4863C70.2455 26.1182 70.2989 25.771 70.6296 25.3187C71.1098 24.6665 72.4009 24.0774 75.3565 23.1937C76.2421 22.9202 77.053 22.6678 77.1704 22.6047C77.2878 22.5521 77.6505 22.4363 77.9706 22.3417C78.2907 22.2575 78.7496 22.1313 78.9843 22.0682C80.0513 21.7736 80.2114 21.3739 79.9553 19.7118C79.8592 19.0806 79.6779 18.1654 79.5712 17.671C78.6322 13.5264 78.5041 12.811 78.5041 11.7696C78.5041 10.6756 78.6962 10.2232 79.2404 9.99182C80.1793 9.61312 80.9796 10.3916 82.2707 12.9583C82.7828 13.9682 83.199 14.8413 83.199 14.8939C83.199 14.9465 83.295 15.1779 83.4017 15.4093C83.5191 15.6408 83.7325 16.1352 83.8925 16.5139C84.9275 19.028 85.0876 19.2279 85.8345 19.0912C86.0585 19.0491 86.3573 18.9334 86.5174 18.8176C86.6774 18.7125 86.8375 18.6178 86.8695 18.6178C87.0082 18.6178 90.0598 15.6408 91.1588 14.4415C91.3829 14.1891 91.607 13.9892 91.6603 13.9892C91.703 13.9892 91.9698 13.8209 92.2258 13.6315C93.7517 12.4849 95.2561 13.1582 94.936 14.8413C94.7546 15.7565 94.1251 16.7769 92.6206 18.5862C92.1405 19.1648 91.735 19.6802 91.735 19.7223C91.735 19.7644 91.4576 20.1115 91.1162 20.5008C89.9318 21.8262 89.505 22.4153 89.4303 22.7835C89.3022 23.4567 89.7184 23.9406 90.7747 24.3824C91.0948 24.5192 91.607 24.7506 91.8951 24.8874C92.1938 25.0241 93.2502 25.4765 94.2425 25.8867C97.3261 27.1491 98.6279 27.8328 99.3641 28.5587C100.538 29.7053 100.581 30.9255 99.4495 31.462C98.852 31.7461 98.2118 31.6935 96.878 31.2411C95.1068 30.631 92.7914 30.0209 91.2549 29.7684C90.8494 29.6948 90.1452 29.5475 89.6864 29.4423C88.7047 29.2004 87.6591 29.1793 87.4777 29.3897C87.2323 29.6737 87.1256 30.9781 87.0509 34.5022C86.9868 37.9736 86.9762 38.0367 86.7201 38.5522C86.2293 39.4989 85.2476 39.9092 84.426 39.4779V39.4779ZM85.5571 38.7099C86.0692 38.4364 86.1119 38.1629 86.2613 33.8815C86.336 31.6619 86.4427 29.6737 86.5067 29.4633C86.56 29.253 86.7521 28.9374 86.9335 28.7691C87.2002 28.5166 87.371 28.464 87.9151 28.4219C88.2673 28.3904 88.9075 28.4324 89.3236 28.5061C90.668 28.727 94.84 29.7684 96.3231 30.2418C97.1127 30.4942 97.9877 30.7572 98.2651 30.8098C98.9053 30.9571 99.3961 30.7993 99.4922 30.4206C99.5882 30.0314 99.1614 29.295 98.5852 28.8742C97.6782 28.18 95.0107 26.9597 91.3616 25.5501C89.6117 24.8769 89.0995 24.5402 88.7581 23.8459C88.2459 22.815 88.5233 22.2154 90.6253 19.7749C92.642 17.4291 93.5703 16.2299 93.9224 15.5251C94.2638 14.8413 94.3065 14.126 94.0184 13.9156C93.4742 13.5264 92.866 13.9366 90.7427 16.1036C87.7551 19.1753 86.6667 19.9853 85.5464 19.9853C84.6288 19.9853 84.234 19.5645 83.4657 17.7236C82.5908 15.6513 81.5878 13.4632 81.0756 12.5165C80.2114 10.9491 79.5498 10.4336 79.3364 11.2016C79.2404 11.5487 79.4538 13.2529 79.7846 14.7256C80.7449 18.9544 80.8729 19.7539 80.8302 20.8163C80.7769 22.268 80.4888 22.5205 78.2907 23.1411C74.012 24.3404 72.5076 24.8558 71.6966 25.3923C71.2805 25.6553 71.1952 25.771 71.1952 26.034C71.1952 26.318 71.2485 26.3706 71.782 26.5494C72.2515 26.7072 72.881 26.7598 74.9297 26.8335C80.7769 27.0439 81.5131 27.1385 82.164 27.7487C82.7508 28.2957 82.8469 28.6428 83.3483 32.0406C83.6044 33.8289 83.8712 35.8171 83.9459 36.4483C84.0953 37.8894 84.202 38.2155 84.5967 38.5522C84.9489 38.8362 85.2263 38.8783 85.5571 38.7099V38.7099Z" fill="#FEFDFC"/>
<path d="M84.7674 30.2102C84.3086 29.7053 84.8848 28.9269 85.429 29.3056C85.7064 29.5054 85.7278 29.9893 85.461 30.2208C85.2049 30.4522 84.9808 30.4417 84.7674 30.2102V30.2102ZM84.1913 27.6435C83.4764 27.2963 83.7218 25.9814 84.5007 25.9814C84.9382 25.9814 85.1729 26.1287 85.3223 26.4969C85.5037 26.9282 85.2369 27.4962 84.7781 27.654C84.5967 27.7171 84.4473 27.7697 84.4367 27.7592C84.426 27.7592 84.3193 27.7066 84.1913 27.6435ZM89.1742 27.3489C89.0568 27.2332 88.9608 27.0439 88.9608 26.9282C88.9608 26.6862 89.3129 26.297 89.537 26.297C90.0171 26.297 90.1985 27.107 89.793 27.391C89.4836 27.6014 89.4303 27.6014 89.1742 27.3489ZM86.6454 26.3812C85.9305 26.034 86.1759 24.7191 86.9548 24.7191C87.403 24.7191 87.6377 24.8769 87.7764 25.2451C87.9151 25.6448 87.7977 25.9814 87.4029 26.2865C87.0828 26.5284 86.9868 26.5495 86.6454 26.3812ZM87.0615 25.4344C86.9655 25.3397 86.9335 25.3608 86.9335 25.5606C86.9335 25.7605 86.9655 25.7815 87.0615 25.6869C87.1575 25.5922 87.1575 25.5291 87.0615 25.4344V25.4344ZM81.417 25.8236C81.289 25.7289 81.1503 25.4975 81.1183 25.3082C80.9156 24.2773 82.228 23.7302 82.6228 24.6875C82.7615 24.9926 82.7615 25.1188 82.6548 25.3713C82.42 25.9393 81.8759 26.1392 81.417 25.8236ZM79.1123 25.5817C78.8669 25.3187 78.8882 25.0031 79.1443 24.7717C79.4858 24.4666 79.9339 24.6665 79.9766 25.1188C79.9979 25.3082 79.9552 25.5396 79.8806 25.6238C79.7098 25.8341 79.315 25.8131 79.1123 25.5817V25.5817ZM83.9672 25.0136C83.6578 24.7086 83.9352 23.9827 84.362 23.9827C84.5967 23.9827 84.9062 24.3088 84.9062 24.5508C84.9062 25.0557 84.3086 25.3502 83.9672 25.0136V25.0136ZM85.589 23.3095C85.0022 22.8256 85.3543 21.7736 86.1012 21.7736C86.9441 21.7736 87.2109 23.0991 86.4426 23.4462C86.0585 23.6145 85.9091 23.5935 85.589 23.3095ZM86.1866 22.6678C86.1866 22.5836 86.1439 22.51 86.0799 22.51C86.0265 22.51 85.9732 22.5836 85.9732 22.6678C85.9732 22.7519 86.0265 22.8256 86.0799 22.8256C86.1439 22.8256 86.1866 22.7519 86.1866 22.6678ZM82.8788 22.9308C82.6334 22.6888 82.5908 22.0366 82.8042 21.7631C83.3377 21.0793 84.266 21.4054 84.266 22.2786C84.266 22.9939 83.3697 23.4147 82.8788 22.9308ZM87.3816 21.3318C87.0935 21.0478 87.3816 20.3009 87.7871 20.3009C88.0752 20.3009 88.3206 20.5849 88.3206 20.9216C88.3206 21.2792 88.1392 21.458 87.7871 21.458C87.6377 21.458 87.4563 21.4054 87.3816 21.3318ZM82.4414 20.3325C82.0039 20.2273 81.9826 19.27 82.42 19.2384C82.9535 19.2069 83.1136 19.3436 83.0709 19.817C83.0389 20.1431 82.7188 20.3956 82.4414 20.3325Z" fill="#FEFDFC"/>
</svg>
